<?xml version="1.0" encoding="UTF-8"?>
<svg xmlns="http://www.w3.org/2000/svg" width="128" height="128" viewBox="0 0 128 128" role="img" aria-labelledby="title desc"><title id="title">BeachBox — favicon semplificato</title><desc id="desc">BeachBox. Due toast illustrati, tre raggi, wordmark BeachBox. Ordina. Rilassati. Arriviamo noi. Ricostruzione vettoriale dal riferimento approvato.</desc><rect width="128" height="128" rx="28" fill="#FFF9F1"/><g transform="translate(-47 1) scale(.33)"><defs><linearGradient id="crust-mini" x1="190" y1="160" x2="363" y2="180" gradientUnits="userSpaceOnUse"><stop stop-color="#F78A28"/><stop offset="1" stop-color="#D46A1F"/></linearGradient><linearGradient id="back-mini" x1="365" y1="110" x2="495" y2="280" gradientUnits="userSpaceOnUse"><stop stop-color="#CC610C"/><stop offset="1" stop-color="#C45C09"/></linearGradient><linearGradient id="crumb-mini" x1="230" y1="127" x2="303" y2="274" gradientUnits="userSpaceOnUse"><stop stop-color="#FFE6C7"/><stop offset="1" stop-color="#FFE0B3"/></linearGradient><linearGradient id="toast-mini" x1="388" y1="130" x2="454" y2="269" gradientUnits="userSpaceOnUse"><stop stop-color="#F7A14D"/><stop offset="1" stop-color="#F3933B"/></linearGradient></defs><g id="toast-bb"><path id="rays" fill="#FA8523" d="M368 86C366 78 366 59 367 54C368 42 381 42 382 54C383 63 381 82 380 86C379 93 370 94 368 86ZM337 97L320 77C313 67 323 59 331 68L347 88C352 97 344 104 337 97ZM402 98C397 95 399 90 402 86L416 68C423 59 434 66 429 75L411 97C407 102 404 102 402 98Z"/><path id="back-toast-crust" fill="url(#back-mini)" d="M358 170C354 156 356 136 367 125C378 112 397 109 420 112C450 114 482 125 495 144C510 165 503 195 479 211C490 225 494 243 489 260C482 283 461 294 434 293C411 293 385 286 360 283C353 282 352 278 357 274C372 259 379 245 378 226C377 210 367 198 354 187Z"/><path id="back-toast-crumb" fill="url(#toast-mini)" d="M370 171C366 151 372 135 387 132C404 126 429 130 447 137C467 144 477 158 474 174C472 188 463 198 449 202C442 204 445 211 450 214C463 222 465 237 460 250C454 268 437 277 414 276L370 267C381 252 386 235 382 216C379 200 371 190 365 185Z"/><path id="toast-separation" fill="none" stroke="#FFF9F1" stroke-width="8" stroke-linecap="round" d="M340 186C357 198 365 212 366 229C369 251 361 267 347 275"/><path id="front-toast-crust" fill="url(#crust-mini)" d="M208 192C194 185 188 171 190 156C190 132 213 116 240 109C271 101 304 103 325 111C343 118 350 133 350 155C350 168 346 178 340 186C357 198 365 212 366 229C369 251 361 267 347 275C331 285 301 285 281 288L245 293C230 296 218 287 216 273Z"/><path id="front-toast-crumb" fill="url(#crumb-mini)" d="M220 184C209 178 204 167 208 154C213 136 235 128 256 126C281 121 304 125 314 137C324 148 321 166 313 178C308 184 303 190 309 195C325 201 333 215 334 230C337 248 327 261 311 267C292 273 264 271 247 276C237 278 231 273 230 260L222 195Q222 188 220 184Z"/></g></g></svg>
